# xmcd CD database file
#
# Track frame offsets:
#	150
#	11289
#	21491
#	36642
#	48846
#	61084
#	75262
#	85969
#	101010
#	113168
#	128716
#	143577
#	156150
#	168450
#	182755
#	198638
#	229320
#	243373
#	257698
#	270321
#	278222
#	289459
#	299801
#	313984
#
# Disc length: 4360 seconds
#
# Revision: 2
# Processed by: cddbd v1.5.2PL0 Copyright (c) Steve Scherf et al.
# Submitted via: CDex 1.51
#
DISCID=60110618
DTITLE=Jan Werich - Tam za tim morem piva
DYEAR=1900
DGENRE=Jazz
TTITLE0=Za morem piva
TTITLE1=Pul parku
TTITLE2=Strojvudce prihoda
TTITLE3=Kdyz padla rosa do jetele
TTITLE4=Nas pan je pod drnem
TTITLE5=Sur holka
TTITLE6=Zejtra je taky den
TTITLE7=Jo jo jo
TTITLE8=Mnozeni
TTITLE9=Neni-li tu ta...
TTITLE10=Nerymovana
TTITLE11=Tragedie vodnikova
TTITLE12=Cecilie
TTITLE13=Bleska a veska
TTITLE14=Hodne stene
TTITLE15=Pisen strasliva o Golemovi
TTITLE16=Nektery den
TTITLE17=Talisman
TTITLE18=Byt ci nebyt
TTITLE19=Napoleon
TTITLE20=La Bottiglia
TTITLE21=Benvenuto Borghese
TTITLE22=Vy nevite, co je stredovek
TTITLE23=Byla jedna holcicka
EXTD=
EXTT0=
EXTT1=
EXTT2=
EXTT3=
EXTT4=
EXTT5=
EXTT6=
EXTT7=
EXTT8=
EXTT9=
EXTT10=
EXTT11=
EXTT12=
EXTT13=
EXTT14=
EXTT15=
EXTT16=
EXTT17=
EXTT18=
EXTT19=
EXTT20=
EXTT21=
EXTT22=
EXTT23=
PLAYORDER=
